<svg width="1791.9999999999998" height="1791.9999999999998" xmlns="http://www.w3.org/2000/svg">

 <g>
  <title>background</title>
  <rect fill="none" id="canvas_background" height="402" width="582" y="-1" x="-1"/>
 </g>
 <g>
  <title>Layer 1</title>
  <path fill="#ffffff" id="svg_1" d="m888,1184l116,-116l-152,-152l-116,116l0,56l96,0l0,96l56,0zm440,-720q-16,-16 -33,1l-350,350q-17,17 -1,33t33,-1l350,-350q17,-17 1,-33zm80,594l0,190q0,119 -84.5,203.5t-203.5,84.5l-832,0q-119,0 -203.5,-84.5t-84.5,-203.5l0,-832q0,-119 84.5,-203.5t203.5,-84.5l832,0q63,0 117,25q15,7 18,23q3,17 -9,29l-49,49q-14,14 -32,8q-23,-6 -45,-6l-832,0q-66,0 -113,47t-47,113l0,832q0,66 47,113t113,47l832,0q66,0 113,-47t47,-113l0,-126q0,-13 9,-22l64,-64q15,-15 35,-7t20,29zm-96,-738l288,288l-672,672l-288,0l0,-288l672,-672zm444,132l-92,92l-288,-288l92,-92q28,-28 68,-28t68,28l152,152q28,28 28,68t-28,68z"/>
 </g>
</svg>